<?xml version="1.0" standalone="no"?>
<!DOCTYPE svg PUBLIC "-//W3C//DTD SVG 20010904//EN"
 "http://www.w3.org/TR/2001/REC-SVG-20010904/DTD/svg10.dtd">
<svg version="1.0" xmlns="http://www.w3.org/2000/svg"
 width="992.000000pt" height="992.000000pt" viewBox="0 0 992.000000 992.000000"
 preserveAspectRatio="xMidYMid meet">
<metadata>
Created by potrace 1.11, written by Peter Selinger 2001-2013
</metadata>
<g transform="translate(0.000000,992.000000) scale(0.100000,-0.100000)"
fill="#000000" stroke="none">
<path d="M4875 9914 c-178 -39 -311 -155 -366 -319 -13 -39 -25 -72 -26 -74
-2 -2 -12 4 -23 14 -11 10 -20 14 -20 10 0 -4 -8 -1 -17 7 -29 25 -114 47
-198 50 -25 1 -85 -14 -140 -35 -70 -26 -171 -120 -200 -185 l-18 -41 -28 20
c-15 10 -32 19 -38 19 -6 0 -11 4 -11 10 0 20 -123 48 -205 46 -168 -5 -312
-112 -362 -269 -17 -54 -19 -56 -48 -50 -33 6 -31 6 -96 0 -96 -9 -169 -45
-241 -119 -48 -48 -81 -99 -93 -140 -2 -5 -3 -9 -5 -10 -13 -18 -21 -163 -10
-210 6 -27 1 -45 -32 -106 -41 -78 -125 -280 -132 -318 -3 -13 -7 -28 -11 -34
-3 -5 -8 -18 -10 -27 -2 -10 -16 -61 -30 -113 -29 -110 -73 -348 -81 -435 -3
-33 -8 -80 -10 -105 -10 -96 -15 -179 -18 -291 -2 -64 -6 -121 -10 -127 -4 -7
-3 -12 3 -12 6 0 6 -11 1 -30 -5 -16 -5 -30 -2 -30 10 0 8 -62 -2 -78 -4 -7
-4 -12 1 -12 4 0 9 -48 9 -108 1 -59 3 -137 5 -173 2 -44 -1 -72 -9 -82 -9
-10 -10 -17 -2 -22 7 -4 7 -12 0 -26 -7 -12 -7 -19 -1 -19 6 0 6 -11 1 -30 -5
-19 -5 -30 1 -30 6 0 7 -4 4 -10 -9 -14 -9 -89 -1 -130 6 -28 15 -39 46 -54
46 -22 76 -77 96 -176 11 -53 68 -218 98 -280 63 -133 116 -193 218 -243 79
-39 194 -78 203 -69 3 3 5 1 5 -4 0 -5 10 -10 23 -10 12 -1 33 -5 47 -8 41
-11 127 -25 204 -33 164 -16 558 -3 696 24 19 4 42 8 50 9 23 4 59 12 80 19
10 3 28 8 41 10 12 3 61 23 108 47 108 53 199 142 268 259 54 94 76 146 127
299 20 58 44 124 55 146 23 48 70 91 109 100 15 4 31 9 37 12 18 11 87 4 131
-13 24 -9 56 -31 73 -50 27 -32 71 -129 71 -160 0 -8 4 -16 9 -19 5 -3 12 -23
16 -43 7 -39 11 -50 64 -167 84 -186 182 -296 332 -371 27 -14 49 -23 49 -20
0 3 10 0 23 -7 12 -6 27 -13 34 -14 6 -1 27 -7 45 -12 18 -6 51 -13 72 -17 21
-3 48 -7 60 -10 83 -17 242 -27 456 -27 145 -1 295 6 295 12 0 1 11 3 25 5 14
1 39 6 55 9 17 4 39 8 50 10 33 6 149 36 170 45 11 5 51 21 90 37 49 20 85 43
120 79 56 56 88 95 78 95 -3 0 1 8 9 18 17 20 83 173 94 217 4 17 11 36 17 43
5 6 7 12 4 12 -4 0 0 18 8 40 8 22 14 41 13 43 0 1 6 27 15 57 17 59 33 81 82
109 35 20 56 75 44 109 -5 12 -4 24 1 27 8 5 6 37 -4 53 -2 4 -1 14 4 22 4 7
4 24 -1 37 -5 15 -5 23 2 23 6 0 6 7 -1 20 -6 11 -8 20 -5 20 3 0 1 9 -5 20
-7 13 -13 144 -15 368 -2 191 -6 370 -9 397 -3 28 -7 77 -10 110 -6 67 -14
142 -22 195 -3 19 -7 49 -9 65 -11 76 -17 112 -31 183 -8 42 -18 88 -21 102
-3 14 -6 33 -7 43 0 9 -5 17 -10 17 -5 0 -7 3 -4 6 4 3 2 20 -3 37 -6 18 -12
43 -15 56 -3 13 -11 39 -19 57 -8 19 -11 34 -8 34 3 0 0 7 -7 15 -7 8 -9 15
-5 15 4 0 2 7 -5 15 -7 8 -10 15 -7 15 4 0 -3 21 -14 48 -34 78 -42 97 -43
102 -1 3 -16 35 -35 71 -28 58 -31 71 -23 102 10 37 9 150 -3 202 -18 82 -98
187 -183 239 -46 29 -133 55 -169 51 -13 -1 -23 2 -23 7 0 5 -5 6 -11 3 -6 -4
-27 -8 -48 -10 -37 -3 -38 -2 -49 41 -16 59 -54 119 -111 174 -44 42 -70 58
-146 90 -61 25 -275 16 -275 -12 0 -4 -8 -8 -19 -8 -10 0 -24 -7 -31 -15 -7
-8 -17 -15 -22 -15 -5 0 -16 -7 -25 -16 -14 -14 -18 -11 -37 27 -24 47 -115
149 -134 149 -7 0 -12 3 -12 8 0 10 -105 50 -149 57 -19 3 -38 8 -43 11 -4 3
-8 2 -8 -3 0 -4 -24 -9 -53 -9 -52 -2 -146 -34 -178 -61 -23 -19 -26 -17 -33
21 -11 56 -72 168 -118 215 -53 54 -127 102 -193 125 -48 17 -198 29 -240 20z
m-1433 -1736 c46 -24 85 -43 88 -43 3 -1 19 -8 35 -16 17 -9 66 -28 110 -44
44 -15 89 -31 100 -35 21 -9 79 -27 111 -35 10 -3 53 -14 94 -26 62 -17 208
-49 295 -64 343 -61 822 -65 1171 -10 16 3 43 7 59 10 17 2 48 7 70 10 22 4
48 8 57 11 10 3 30 7 45 10 24 4 107 23 176 40 9 2 25 6 35 8 43 10 201 57
242 71 25 9 53 18 62 20 31 7 143 48 152 57 6 4 15 8 22 8 6 0 29 8 50 17 22
9 41 17 44 18 3 1 19 7 35 14 49 21 81 23 98 6 9 -8 19 -15 22 -15 28 0 230
-204 292 -295 16 -22 31 -42 34 -45 26 -19 146 -237 224 -405 16 -35 70 -177
73 -195 1 -3 13 -39 28 -80 14 -41 27 -84 29 -95 1 -11 4 -20 5 -20 1 0 4 -9
5 -20 2 -11 13 -58 25 -105 13 -47 24 -96 25 -110 2 -14 4 -25 5 -25 3 0 10
-37 16 -85 3 -24 8 -48 10 -52 3 -5 3 -17 -1 -27 -5 -16 -11 -18 -33 -11 -43
15 -212 41 -222 35 -5 -3 -11 -1 -15 5 -3 5 -16 9 -28 9 -12 -1 -47 2 -77 6
-93 12 -113 14 -175 19 -33 3 -85 8 -115 11 -47 4 -304 17 -335 17 -58 -1
-317 -13 -340 -16 -73 -8 -162 -19 -180 -22 -11 -1 -38 -5 -60 -8 -22 -3 -51
-8 -65 -11 -14 -3 -41 -8 -60 -11 -35 -5 -61 -10 -102 -19 -13 -2 -40 -6 -60
-9 -21 -2 -41 -7 -47 -10 -5 -3 -26 -8 -47 -11 -22 -3 -64 -11 -94 -17 -73
-15 -78 -16 -130 -23 -25 -3 -53 -8 -63 -11 -44 -13 -222 -18 -294 -8 -80 11
-116 17 -208 34 -27 5 -61 12 -75 14 -14 3 -36 8 -50 11 -14 3 -38 7 -55 10
-16 3 -41 8 -55 10 -14 3 -36 7 -50 10 -14 3 -36 7 -50 10 -14 3 -42 7 -62 9
-21 2 -41 7 -46 10 -5 3 -31 7 -58 10 -27 3 -65 7 -84 10 -154 24 -257 30
-500 30 -209 0 -375 -7 -465 -19 -27 -4 -56 -7 -185 -21 -75 -7 -189 -23 -210
-29 -8 -2 -30 -7 -47 -10 -42 -6 -91 -15 -106 -18 -16 -3 -11 92 7 152 3 9 8
30 11 47 6 37 53 222 62 244 3 8 8 26 10 40 2 13 9 30 15 37 6 7 8 13 4 13 -4
0 0 14 9 30 9 17 13 30 9 30 -4 0 -1 6 5 13 6 8 12 22 14 33 4 20 5 22 44 119
28 69 125 268 134 275 3 3 18 27 34 55 34 62 86 139 97 143 4 2 8 10 8 17 0 7
7 16 16 19 9 4 14 9 11 12 -14 15 298 324 328 324 2 0 41 -19 87 -42z m308
-1591 c25 -3 77 -9 115 -12 66 -6 82 -8 153 -19 15 -3 43 -7 62 -10 19 -3 46
-8 60 -11 14 -4 36 -8 50 -10 37 -5 79 -14 135 -31 28 -7 53 -14 57 -14 24 -2
124 -55 152 -81 55 -50 67 -145 32 -274 -1 -5 -8 -36 -15 -68 -7 -32 -19 -70
-27 -85 -8 -15 -14 -33 -14 -40 0 -30 -86 -169 -134 -217 -60 -60 -142 -102
-230 -119 -6 -2 -36 -8 -66 -14 -30 -6 -75 -13 -100 -17 -25 -3 -63 -8 -85
-11 -127 -17 -381 -22 -485 -10 -36 4 -78 9 -95 11 -84 10 -119 16 -201 35
-134 31 -206 57 -245 89 -36 30 -95 128 -103 172 -3 13 -5 24 -6 24 -2 0 -6
20 -14 65 -4 19 -9 42 -11 50 -3 8 -7 31 -9 50 -3 19 -8 53 -12 75 -3 22 -7
78 -7 125 0 98 23 166 74 212 16 15 29 25 29 22 0 -2 18 5 40 16 22 11 40 18
40 14 0 -4 6 -2 13 4 7 6 24 13 37 15 14 3 43 9 65 15 22 6 58 13 80 16 22 3
60 9 85 13 25 4 60 8 78 8 17 0 32 2 32 5 0 3 12 5 27 4 16 0 53 2 83 6 66 7
297 5 360 -3z m2850 -1 c134 -15 154 -18 174 -22 12 -2 50 -9 85 -14 35 -6 71
-15 80 -19 9 -5 19 -9 24 -9 48 -2 150 -45 183 -78 28 -27 49 -69 59 -114 9
-38 8 -169 0 -210 -3 -14 -8 -45 -11 -70 -5 -39 -15 -90 -30 -152 -2 -10 -6
-28 -9 -40 -11 -52 -68 -148 -103 -176 -34 -26 -76 -48 -78 -40 0 2 -7 -2 -15
-8 -8 -7 -30 -15 -49 -20 -19 -4 -37 -8 -40 -9 -3 -1 -23 -5 -45 -10 -22 -5
-42 -10 -45 -10 -15 -4 -79 -16 -105 -19 -16 -2 -30 -5 -30 -6 0 -1 -19 -3
-140 -15 -87 -9 -228 -11 -273 -5 -23 4 -45 3 -48 -2 -3 -4 -10 -5 -16 -2 -5
4 -31 8 -57 10 -45 4 -79 8 -171 19 -70 9 -185 33 -237 51 -92 31 -162 88
-229 189 -32 50 -98 195 -88 195 3 0 2 6 -3 13 -4 6 -8 17 -9 22 -1 6 -6 28
-12 50 -21 77 -24 100 -25 165 -2 82 6 110 39 143 53 54 221 114 394 142 19 3
46 7 60 10 74 13 203 29 335 41 39 3 71 7 72 8 5 5 310 -2 363 -8z"/>
<path d="M1106 4803 c-1 -1 -24 -5 -52 -8 -80 -9 -147 -26 -184 -46 -8 -4 -39
-20 -68 -35 -75 -37 -200 -164 -237 -239 -17 -33 -33 -62 -36 -65 -3 -3 -9
-16 -12 -30 -3 -14 -12 -52 -21 -85 -13 -53 -15 -306 -16 -2177 l0 -2118 4480
0 4480 0 -3 2138 c-1 1175 -5 2144 -8 2152 -9 24 -28 94 -29 105 -1 6 -8 17
-15 25 -7 8 -13 17 -12 20 2 9 -47 90 -55 90 -4 0 -8 6 -8 14 0 7 -31 43 -70
78 -69 64 -207 145 -259 153 -14 2 -37 7 -51 10 -14 4 -44 8 -68 10 -24 2 -46
5 -48 8 -3 3 -19 1 -35 -3 -16 -5 -29 -5 -29 0 0 5 -13 5 -30 0 -17 -5 -32 -5
-35 0 -3 5 -16 5 -30 0 -15 -6 -27 -6 -30 0 -3 6 -15 6 -30 0 -15 -6 -27 -6
-30 0 -3 6 -15 6 -30 0 -15 -6 -27 -6 -30 0 -3 6 -15 6 -30 0 -15 -6 -27 -6
-30 0 -3 6 -15 6 -30 0 -15 -6 -27 -6 -30 0 -3 6 -15 6 -30 0 -15 -6 -27 -6
-30 0 -3 6 -15 6 -30 0 -15 -6 -27 -6 -30 0 -3 6 -15 6 -30 0 -15 -6 -27 -6
-30 0 -3 6 -15 6 -30 0 -15 -6 -27 -6 -30 0 -3 6 -15 6 -30 0 -15 -6 -27 -6
-30 0 -3 6 -15 6 -30 0 -15 -6 -27 -6 -30 0 -3 6 -15 6 -30 0 -15 -6 -27 -6
-30 0 -3 6 -15 6 -30 0 -15 -6 -27 -6 -30 0 -3 6 -15 6 -30 0 -15 -6 -27 -6
-30 0 -3 6 -15 6 -30 0 -15 -6 -27 -6 -30 0 -3 6 -15 6 -30 0 -15 -6 -27 -6
-30 0 -3 6 -15 6 -30 0 -15 -6 -27 -6 -30 0 -3 6 -15 6 -30 0 -15 -6 -27 -6
-30 0 -3 6 -15 6 -30 0 -15 -6 -27 -6 -30 0 -3 6 -15 6 -30 0 -15 -6 -27 -6
-30 0 -3 6 -15 6 -30 0 -15 -6 -27 -6 -30 0 -3 6 -15 6 -30 0 -15 -6 -27 -6
-30 0 -3 6 -15 6 -30 0 -15 -6 -27 -6 -30 0 -3 6 -15 6 -30 0 -15 -6 -27 -6
-30 0 -3 6 -15 6 -30 0 -15 -6 -27 -6 -30 0 -3 6 -15 6 -30 0 -15 -6 -27 -6
-30 0 -3 6 -15 6 -30 0 -15 -6 -27 -6 -30 0 -3 6 -15 6 -30 0 -15 -6 -27 -6
-30 0 -3 6 -15 6 -30 0 -15 -6 -27 -6 -30 0 -3 6 -15 6 -30 0 -15 -6 -27 -6
-30 0 -3 6 -15 6 -30 0 -15 -6 -27 -6 -30 0 -3 6 -15 6 -30 0 -15 -6 -27 -6
-30 0 -3 6 -15 6 -30 0 -15 -6 -27 -6 -30 0 -3 6 -15 6 -30 0 -15 -6 -27 -6
-30 0 -3 6 -15 6 -30 0 -15 -6 -27 -6 -30 0 -3 6 -15 6 -30 0 -15 -6 -27 -6
-30 0 -3 6 -15 6 -30 0 -15 -6 -27 -6 -30 0 -3 6 -15 6 -30 0 -15 -6 -27 -6
-30 0 -3 6 -15 6 -30 0 -15 -6 -27 -6 -30 0 -3 6 -15 6 -30 0 -15 -6 -27 -6
-30 0 -3 6 -15 6 -30 0 -15 -6 -27 -6 -30 0 -3 6 -15 6 -30 0 -15 -6 -27 -6
-30 0 -3 6 -15 6 -30 0 -15 -6 -27 -6 -30 0 -3 6 -15 6 -30 0 -15 -6 -27 -6
-30 0 -3 6 -15 6 -30 0 -15 -6 -27 -6 -30 0 -3 6 -15 6 -30 0 -15 -6 -27 -6
-30 0 -3 6 -15 6 -30 0 -15 -6 -27 -6 -30 0 -3 6 -15 6 -30 0 -15 -6 -27 -6
-30 0 -3 6 -15 6 -30 0 -15 -6 -27 -6 -30 0 -3 6 -15 6 -30 0 -15 -6 -27 -6
-30 0 -3 6 -15 6 -30 0 -15 -6 -27 -6 -30 0 -3 6 -15 6 -30 0 -15 -6 -27 -6
-30 0 -3 6 -15 6 -30 0 -15 -6 -27 -6 -30 0 -3 6 -15 6 -30 0 -15 -6 -27 -6
-30 0 -3 6 -15 6 -30 0 -15 -6 -27 -6 -30 0 -3 6 -15 6 -30 0 -15 -6 -27 -6
-30 0 -3 6 -15 6 -30 0 -14 -5 -27 -5 -30 0 -3 5 -18 5 -35 0 -17 -5 -30 -6
-30 -2 0 6 -4088 11 -4094 5z m4105 -1621 c3 -49 0 -72 -15 -126 -46 -156
-200 -297 -340 -309 l-48 -4 4 66 c11 159 131 309 292 365 79 28 106 30 107 8z
m63 -447 c98 -20 187 -67 251 -134 l40 -42 -39 -32 c-62 -51 -95 -85 -89 -91
4 -3 2 -6 -4 -6 -13 0 -58 -90 -71 -140 -11 -43 -8 -172 5 -220 26 -95 103
-192 192 -245 60 -35 61 -43 14 -141 -78 -167 -193 -314 -290 -371 -66 -39
-141 -37 -264 7 -124 44 -218 46 -329 5 -41 -15 -90 -31 -108 -35 -42 -10
-143 -5 -151 8 -3 5 -20 16 -37 25 -26 13 -94 81 -144 143 -74 93 -183 305
-205 399 -2 11 -10 40 -16 65 -6 25 -12 54 -14 65 -1 11 -3 20 -4 20 -2 0 -4
25 -5 55 -1 31 -5 61 -9 67 -4 6 -3 14 2 17 5 4 6 18 2 33 -4 15 -3 43 1 62 9
38 36 149 41 166 11 36 62 119 101 162 91 101 200 153 332 158 72 3 92 -1 195
-36 117 -40 145 -45 189 -35 23 5 36 10 95 32 123 45 225 58 319 39z"/>
</g>
</svg>
